<?xml version="1.0" standalone="no"?>
<!DOCTYPE svg PUBLIC "-//W3C//DTD SVG 20010904//EN"
 "http://www.w3.org/TR/2001/REC-SVG-20010904/DTD/svg10.dtd">
<svg version="1.0" xmlns="http://www.w3.org/2000/svg"
 width="309.000000pt" height="251.000000pt" viewBox="0 0 309.000000 251.000000"
 preserveAspectRatio="xMidYMid meet">

<g transform="translate(0.000000,251.000000) scale(0.100000,-0.100000)"
fill="#ffffff" stroke="none">
<path d="M1305 2489 c-17 -4 -44 -22 -60 -39 -57 -60 -31 -171 51 -217 55 -32
117 -30 162 3 141 108 22 304 -153 253z"/>
<path d="M2755 2462 c-76 -3 -239 -30 -271 -44 -16 -8 -28 -26 -38 -62 -8 -28
-27 -93 -41 -144 -15 -52 -25 -96 -22 -99 3 -2 58 24 124 59 97 52 231 115
358 168 76 32 182 70 193 70 7 0 11 4 7 9 -14 24 -192 49 -310 43z"/>
<path d="M2295 2347 c-87 -47 -197 -121 -221 -148 -32 -36 -75 -301 -53 -324
4 -3 35 16 70 42 66 50 113 82 187 127 36 22 42 31 42 59 0 19 9 76 20 128 12
52 24 106 27 122 7 34 1 34 -72 -6z"/>
<path d="M2810 2251 c-395 -197 -584 -317 -839 -527 -205 -170 -326 -285 -308
-295 14 -8 138 8 272 36 96 19 229 63 320 104 69 31 282 156 325 190 l25 19
-25 6 c-146 32 -251 59 -255 66 -2 4 4 15 15 25 19 17 27 17 202 -5 l182 -23
74 79 c106 114 197 237 241 329 49 99 57 125 39 124 -7 0 -128 -58 -268 -128z"/>
<path d="M1013 2330 c-281 -73 -516 -235 -686 -472 -55 -77 -155 -264 -146
-272 2 -2 20 -6 39 -10 l35 -6 53 100 c121 228 242 365 416 469 105 62 215
101 394 137 18 3 22 11 22 39 0 32 -3 35 -27 34 -16 0 -60 -9 -100 -19z"/>
<path d="M1597 2343 c-4 -3 -7 -18 -7 -33 0 -24 7 -28 73 -49 39 -13 101 -36
135 -52 l64 -29 34 28 34 27 -53 26 c-67 34 -222 89 -251 89 -13 0 -26 -3 -29
-7z"/>
<path d="M1908 2089 c-142 -121 -298 -360 -362 -555 -15 -45 -48 -114 -73
-153 -25 -40 -43 -74 -41 -77 3 -2 24 21 48 52 62 82 118 141 304 319 12 11
53 46 92 78 l71 57 5 158 c3 86 5 158 4 159 -1 1 -23 -16 -48 -38z"/>
<path d="M710 1818 c-1 -99 -57 -274 -101 -314 -11 -9 -19 -27 -19 -39 0 -28
-52 -171 -79 -216 -11 -20 -30 -61 -40 -92 l-20 -57 32 0 c18 0 48 -3 68 -6
l36 -6 -14 -41 c-8 -22 -20 -49 -28 -61 -31 -43 -26 -44 218 -49 255 -5 365
-22 473 -71 65 -30 78 -27 44 9 -49 53 -317 120 -520 130 -138 7 -170 11 -170
24 0 18 55 31 129 31 99 0 219 -23 324 -61 45 -16 95 -34 111 -39 l29 -9 -23
24 c-34 37 -150 93 -237 116 -52 13 -133 23 -241 28 -89 5 -165 11 -169 14 -8
9 14 33 53 58 32 19 40 20 151 10 181 -15 305 -61 438 -162 29 -22 75 -48 102
-58 26 -10 57 -22 67 -26 17 -8 19 -5 13 26 -5 22 -21 46 -47 69 -22 19 -48
55 -58 80 -28 66 -92 141 -156 184 -79 53 -261 143 -323 162 -30 9 -53 21 -53
29 0 7 14 42 30 77 17 34 33 80 36 101 4 20 11 40 16 43 5 3 28 -7 50 -23 57
-39 206 -170 243 -213 16 -19 51 -55 78 -80 26 -24 73 -77 103 -116 50 -65 85
-96 84 -76 -1 13 -64 119 -106 179 -104 145 -218 259 -364 364 -30 22 -73 53
-95 69 -55 40 -65 38 -65 -12z m60 -429 c119 -39 193 -76 306 -155 91 -63 174
-144 174 -170 0 -20 -4 -18 -59 21 -153 107 -351 184 -494 193 -76 4 -87 7
-82 21 4 9 16 40 27 69 12 28 24 52 28 52 4 0 49 -14 100 -31z"/>
<path d="M2520 1611 c-24 -19 -24 -21 -12 -68 16 -60 21 -65 60 -57 37 7 38
15 16 90 -17 59 -26 64 -64 35z"/>
<path d="M105 1486 c-17 -7 -45 -30 -63 -50 -79 -91 -6 -226 123 -226 96 0
159 55 159 139 0 108 -117 182 -219 137z"/>
<path d="M2132 1430 c-17 -7 -22 -16 -20 -36 3 -27 1 -28 -97 -49 -285 -62
-436 -160 -592 -387 -39 -58 -24 -62 47 -13 97 67 303 136 454 151 39 4 130 1
210 -6 78 -7 147 -11 153 -9 8 3 3 23 -12 60 -21 50 -46 131 -79 257 -11 44
-21 49 -64 32z m39 -195 c10 -33 19 -63 19 -66 0 -3 -62 -5 -137 -5 -178 1
-279 -23 -440 -105 -62 -31 -113 -54 -113 -50 0 27 183 155 288 202 105 47
279 90 346 85 13 -1 23 -17 37 -61z"/>
<path d="M2535 1396 c-40 -17 -81 -67 -90 -106 -10 -44 11 -94 56 -134 35 -33
45 -36 98 -36 208 0 211 263 2 286 -20 2 -50 -2 -66 -10z"/>
<path d="M1580 1315 c-7 -9 -11 -18 -8 -20 3 -3 11 1 18 10 7 9 11 18 8 20 -3
3 -11 -1 -18 -10z"/>
<path d="M178 1123 c-13 -3 -18 -15 -18 -42 0 -43 55 -212 95 -291 103 -204
288 -381 518 -497 106 -53 274 -115 348 -128 l36 -7 -1 38 c-1 36 -3 38 -46
50 -124 33 -362 141 -451 206 -67 48 -139 117 -234 225 -79 90 -84 99 -123
211 -22 64 -43 126 -46 137 -29 115 -27 112 -78 98z"/>
<path d="M2530 973 c-27 -85 -100 -231 -144 -292 -133 -179 -454 -365 -709
-412 l-69 -13 6 -34 c3 -19 7 -36 9 -38 1 -2 43 5 92 15 297 62 625 270 775
490 75 111 151 298 137 336 -4 9 -19 15 -41 15 -34 0 -35 -1 -56 -67z"/>
<path d="M1805 1020 c-83 -10 -194 -48 -273 -95 -56 -32 -120 -90 -111 -99 2
-3 25 4 49 16 77 35 300 45 549 24 112 -9 205 -15 208 -12 2 2 0 21 -6 43 -6
21 -11 54 -11 74 0 33 -3 37 -32 43 -59 11 -302 15 -373 6z m288 -64 c65 -12
98 -29 85 -42 -3 -3 -32 -1 -64 5 -87 16 -366 14 -449 -4 -39 -8 -83 -15 -100
-14 l-30 0 28 15 c15 8 60 24 100 34 88 23 325 26 430 6z"/>
<path d="M402 828 l3 -53 180 -6 c99 -3 260 -10 357 -14 l177 -8 37 -34 c57
-51 160 -106 202 -106 28 0 57 12 119 52 l82 53 108 -1 c59 0 228 -6 375 -12
148 -6 275 -9 283 -5 18 7 21 76 3 94 -8 8 -46 12 -102 12 -50 0 -136 5 -191
11 -55 5 -182 10 -282 10 l-181 1 -89 -37 c-126 -53 -135 -54 -196 -12 -29 20
-72 45 -97 56 -77 34 -258 51 -538 51 l-253 0 3 -52z"/>
<path d="M1325 325 c-73 -26 -108 -100 -86 -182 33 -121 216 -154 279 -50 30
48 30 123 -1 167 -42 64 -122 91 -192 65z"/>
</g>
</svg>
